<?xml version="1.0" standalone="no"?><!DOCTYPE svg PUBLIC "-//W3C//DTD SVG 1.1//EN" "http://www.w3.org/Graphics/SVG/1.1/DTD/svg11.dtd"><svg t="1552617316080" class="icon" style="" viewBox="0 0 1024 1024" version="1.1" xmlns="http://www.w3.org/2000/svg" p-id="4492" xmlns:xlink="http://www.w3.org/1999/xlink" width="64" height="64"><defs><style type="text/css"></style></defs><path d="M960 506C956.6 258.6 753.4 60.8 506 64S60.8 270.6 64 518c3.4 247.4 206.6 445.2 454 442C765.4 956.6 963.4 753.4 960 506zM512 223.8c35.4 0 64 28.6 64 64s-28.6 64-64 64c-35.4 0-64-28.6-64-64S476.6 223.8 512 223.8zM600 790l-176 0 0-22 44 0L468 448l-44 0 0-24 132 0 0 344 44 0L600 790z" p-id="4493" fill="#1296db"></path></svg>